<svg xmlns="http://www.w3.org/2000/svg" width="1536" height="746" style="cursor: move;"><g transform="translate(193.88430075850601,58.424262992582044) scale(0.8408964152537146)"><path class="link" marker-end="" d="M428,15, 658,245" style="stroke-width: 1.94; stroke-opacity: 0.48; stroke: rgb(255, 164, 164); fill: none;"></path><path class="link" marker-end="" d="M428,15, 658,291" style="stroke-width: 1.94; stroke-opacity: 0.48; stroke: rgb(203, 203, 255); fill: none;"></path><path class="link" marker-end="" d="M428,15, 658,337" style="stroke-width: 1.94; stroke-opacity: 0.48; stroke: rgb(82, 82, 255); fill: none;"></path><path class="link" marker-end="" d="M428,15, 658,383" style="stroke-width: 1.94; stroke-opacity: 0.48; stroke: rgb(255, 42, 42); fill: none;"></path><path class="link" marker-end="" d="M428,15, 658,429" style="stroke-width: 1.94; stroke-opacity: 0.48; stroke: rgb(255, 122, 122); fill: none;"></path><path class="link" marker-end="" d="M428,15, 658,475" style="stroke-width: 1.94; stroke-opacity: 0.48; stroke: rgb(4, 4, 255); fill: none;"></path><path class="link" marker-end="" d="M428,15, 658,521" style="stroke-width: 1.94; stroke-opacity: 0.48; stroke: rgb(174, 174, 255); fill: none;"></path><path class="link" marker-end="" d="M428,61, 658,245" style="stroke-width: 1.94; stroke-opacity: 0.48; stroke: rgb(255, 164, 164); fill: none;"></path><path class="link" marker-end="" d="M428,61, 658,291" style="stroke-width: 1.94; stroke-opacity: 0.48; stroke: rgb(28, 28, 255); fill: none;"></path><path class="link" marker-end="" d="M428,61, 658,337" style="stroke-width: 1.94; stroke-opacity: 0.48; stroke: rgb(255, 43, 43); fill: none;"></path><path class="link" marker-end="" d="M428,61, 658,383" style="stroke-width: 1.94; stroke-opacity: 0.48; stroke: rgb(9, 9, 255); fill: none;"></path><path class="link" marker-end="" d="M428,61, 658,429" style="stroke-width: 1.94; stroke-opacity: 0.48; stroke: rgb(66, 66, 255); fill: none;"></path><path class="link" marker-end="" d="M428,61, 658,475" style="stroke-width: 1.94; stroke-opacity: 0.48; stroke: rgb(255, 250, 250); fill: none;"></path><path class="link" marker-end="" d="M428,61, 658,521" style="stroke-width: 1.94; stroke-opacity: 0.48; stroke: rgb(255, 209, 209); fill: none;"></path><path class="link" marker-end="" d="M428,107, 658,245" style="stroke-width: 1.94; stroke-opacity: 0.48; stroke: rgb(255, 83, 83); fill: none;"></path><path class="link" marker-end="" d="M428,107, 658,291" style="stroke-width: 1.94; stroke-opacity: 0.48; stroke: rgb(167, 167, 255); fill: none;"></path><path class="link" marker-end="" d="M428,107, 658,337" style="stroke-width: 1.94; stroke-opacity: 0.48; stroke: rgb(255, 81, 81); fill: none;"></path><path class="link" marker-end="" d="M428,107, 658,383" style="stroke-width: 1.94; stroke-opacity: 0.48; stroke: rgb(100, 100, 255); fill: none;"></path><path class="link" marker-end="" d="M428,107, 658,429" style="stroke-width: 1.94; stroke-opacity: 0.48; stroke: rgb(187, 187, 255); fill: none;"></path><path class="link" marker-end="" d="M428,107, 658,475" style="stroke-width: 1.94; stroke-opacity: 0.48; stroke: rgb(19, 19, 255); fill: none;"></path><path class="link" marker-end="" d="M428,107, 658,521" style="stroke-width: 1.94; stroke-opacity: 0.48; stroke: rgb(159, 159, 255); fill: none;"></path><path class="link" marker-end="" d="M428,153, 658,245" style="stroke-width: 1.94; stroke-opacity: 0.48; stroke: rgb(255, 215, 215); fill: none;"></path><path class="link" marker-end="" d="M428,153, 658,291" style="stroke-width: 1.94; stroke-opacity: 0.48; stroke: rgb(255, 111, 111); fill: none;"></path><path class="link" marker-end="" d="M428,153, 658,337" style="stroke-width: 1.94; stroke-opacity: 0.48; stroke: rgb(250, 250, 255); fill: none;"></path><path class="link" marker-end="" d="M428,153, 658,383" style="stroke-width: 1.94; stroke-opacity: 0.48; stroke: rgb(255, 81, 81); fill: none;"></path><path class="link" marker-end="" d="M428,153, 658,429" style="stroke-width: 1.94; stroke-opacity: 0.48; stroke: rgb(255, 255, 255); fill: none;"></path><path class="link" marker-end="" d="M428,153, 658,475" style="stroke-width: 1.94; stroke-opacity: 0.48; stroke: rgb(167, 167, 255); fill: none;"></path><path class="link" marker-end="" d="M428,153, 658,521" style="stroke-width: 1.94; stroke-opacity: 0.48; stroke: rgb(255, 211, 211); fill: none;"></path><path class="link" marker-end="" d="M428,199, 658,245" style="stroke-width: 1.94; stroke-opacity: 0.48; stroke: rgb(255, 173, 173); fill: none;"></path><path class="link" marker-end="" d="M428,199, 658,291" style="stroke-width: 1.94; stroke-opacity: 0.48; stroke: rgb(191, 191, 255); fill: none;"></path><path class="link" marker-end="" d="M428,199, 658,337" style="stroke-width: 1.94; stroke-opacity: 0.48; stroke: rgb(255, 142, 142); fill: none;"></path><path class="link" marker-end="" d="M428,199, 658,383" style="stroke-width: 1.94; stroke-opacity: 0.48; stroke: rgb(31, 31, 255); fill: none;"></path><path class="link" marker-end="" d="M428,199, 658,429" style="stroke-width: 1.94; stroke-opacity: 0.48; stroke: rgb(22, 22, 255); fill: none;"></path><path class="link" marker-end="" d="M428,199, 658,475" style="stroke-width: 1.94; stroke-opacity: 0.48; stroke: rgb(255, 194, 194); fill: none;"></path><path class="link" marker-end="" d="M428,199, 658,521" style="stroke-width: 1.94; stroke-opacity: 0.48; stroke: rgb(214, 214, 255); fill: none;"></path><path class="link" marker-end="" d="M428,245, 658,245" style="stroke-width: 1.94; stroke-opacity: 0.48; stroke: rgb(255, 131, 131); fill: none;"></path><path class="link" marker-end="" d="M428,245, 658,291" style="stroke-width: 1.94; stroke-opacity: 0.48; stroke: rgb(248, 248, 255); fill: none;"></path><path class="link" marker-end="" d="M428,245, 658,337" style="stroke-width: 1.94; stroke-opacity: 0.48; stroke: rgb(105, 105, 255); fill: none;"></path><path class="link" marker-end="" d="M428,245, 658,383" style="stroke-width: 1.94; stroke-opacity: 0.48; stroke: rgb(4, 4, 255); fill: none;"></path><path class="link" marker-end="" d="M428,245, 658,429" style="stroke-width: 1.94; stroke-opacity: 0.48; stroke: rgb(217, 217, 255); fill: none;"></path><path class="link" marker-end="" d="M428,245, 658,475" style="stroke-width: 1.94; stroke-opacity: 0.48; stroke: rgb(255, 194, 194); fill: none;"></path><path class="link" marker-end="" d="M428,245, 658,521" style="stroke-width: 1.94; stroke-opacity: 0.48; stroke: rgb(19, 19, 255); fill: none;"></path><path class="link" marker-end="" d="M428,291, 658,245" style="stroke-width: 1.94; stroke-opacity: 0.48; stroke: rgb(255, 77, 77); fill: none;"></path><path class="link" marker-end="" d="M428,291, 658,291" style="stroke-width: 1.94; stroke-opacity: 0.48; stroke: rgb(255, 111, 111); fill: none;"></path><path class="link" marker-end="" d="M428,291, 658,337" style="stroke-width: 1.94; stroke-opacity: 0.48; stroke: rgb(255, 148, 148); fill: none;"></path><path class="link" marker-end="" d="M428,291, 658,383" style="stroke-width: 1.94; stroke-opacity: 0.48; stroke: rgb(255, 204, 204); fill: none;"></path><path class="link" marker-end="" d="M428,291, 658,429" style="stroke-width: 1.94; stroke-opacity: 0.48; stroke: rgb(255, 102, 102); fill: none;"></path><path class="link" marker-end="" d="M428,291, 658,475" style="stroke-width: 1.94; stroke-opacity: 0.48; stroke: rgb(104, 104, 255); fill: none;"></path><path class="link" marker-end="" d="M428,291, 658,521" style="stroke-width: 1.94; stroke-opacity: 0.48; stroke: rgb(255, 251, 251); fill: none;"></path><path class="link" marker-end="" d="M658,199, 888,337" style="stroke-width: 1.94; stroke-opacity: 0.48; stroke: rgb(225, 225, 255); fill: none;"></path><path class="link" marker-end="" d="M658,245, 888,337" style="stroke-width: 1.94; stroke-opacity: 0.48; stroke: rgb(255, 121, 121); fill: none;"></path><path class="link" marker-end="" d="M658,291, 888,337" style="stroke-width: 1.94; stroke-opacity: 0.48; stroke: rgb(255, 247, 247); fill: none;"></path><path class="link" marker-end="" d="M658,337, 888,337" style="stroke-width: 1.94; stroke-opacity: 0.48; stroke: rgb(28, 28, 255); fill: none;"></path><path class="link" marker-end="" d="M658,383, 888,337" style="stroke-width: 1.94; stroke-opacity: 0.48; stroke: rgb(71, 71, 255); fill: none;"></path><path class="link" marker-end="" d="M658,429, 888,337" style="stroke-width: 1.94; stroke-opacity: 0.48; stroke: rgb(255, 239, 239); fill: none;"></path><path class="link" marker-end="" d="M658,475, 888,337" style="stroke-width: 1.94; stroke-opacity: 0.48; stroke: rgb(221, 221, 255); fill: none;"></path><path class="link" marker-end="" d="M658,521, 888,337" style="stroke-width: 1.94; stroke-opacity: 0.48; stroke: rgb(34, 34, 255); fill: none;"></path><path class="link" marker-end="" d="M888,291, 1118,337" style="stroke-width: 1.94; stroke-opacity: 0.48; stroke: rgb(255, 137, 137); fill: none;"></path><path class="link" marker-end="" d="M888,337, 1118,337" style="stroke-width: 1.94; stroke-opacity: 0.48; stroke: rgb(255, 44, 44); fill: none;"></path><path class="link" marker-end="" d="M428,15, 658,199" style="stroke-width: 1.94; stroke-opacity: 0.48; stroke: rgb(255, 74, 74); fill: none;"></path><path class="link" marker-end="" d="M428,61, 658,199" style="stroke-width: 1.94; stroke-opacity: 0.48; stroke: rgb(117, 117, 255); fill: none;"></path><path class="link" marker-end="" d="M428,107, 658,199" style="stroke-width: 1.94; stroke-opacity: 0.48; stroke: rgb(255, 31, 31); fill: none;"></path><path class="link" marker-end="" d="M428,153, 658,199" style="stroke-width: 1.94; stroke-opacity: 0.48; stroke: rgb(224, 224, 255); fill: none;"></path><path class="link" marker-end="" d="M428,199, 658,199" style="stroke-width: 1.94; stroke-opacity: 0.48; stroke: rgb(249, 249, 255); fill: none;"></path><path class="link" marker-end="" d="M428,245, 658,199" style="stroke-width: 1.94; stroke-opacity: 0.48; stroke: rgb(255, 35, 35); fill: none;"></path><path class="link" marker-end="" d="M428,291, 658,199" style="stroke-width: 1.94; stroke-opacity: 0.48; stroke: rgb(210, 210, 255); fill: none;"></path><path class="link" marker-end="" d="M658,199, 888,291" style="stroke-width: 1.94; stroke-opacity: 0.48; stroke: rgb(255, 69, 69); fill: none;"></path><path class="link" marker-end="" d="M658,245, 888,291" style="stroke-width: 1.94; stroke-opacity: 0.48; stroke: rgb(255, 237, 237); fill: none;"></path><path class="link" marker-end="" d="M658,291, 888,291" style="stroke-width: 1.94; stroke-opacity: 0.48; stroke: rgb(42, 42, 255); fill: none;"></path><path class="link" marker-end="" d="M658,337, 888,291" style="stroke-width: 1.94; stroke-opacity: 0.48; stroke: rgb(142, 142, 255); fill: none;"></path><path class="link" marker-end="" d="M658,383, 888,291" style="stroke-width: 1.94; stroke-opacity: 0.48; stroke: rgb(183, 183, 255); fill: none;"></path><path class="link" marker-end="" d="M658,429, 888,291" style="stroke-width: 1.94; stroke-opacity: 0.48; stroke: rgb(73, 73, 255); fill: none;"></path><path class="link" marker-end="" d="M658,475, 888,291" style="stroke-width: 1.94; stroke-opacity: 0.48; stroke: rgb(255, 204, 204); fill: none;"></path><path class="link" marker-end="" d="M658,521, 888,291" style="stroke-width: 1.94; stroke-opacity: 0.48; stroke: rgb(255, 206, 206); fill: none;"></path><path class="link" marker-end="" d="M888,291, 1118,383" style="stroke-width: 1.94; stroke-opacity: 0.48; stroke: rgb(178, 178, 255); fill: none;"></path><path class="link" marker-end="" d="M888,337, 1118,383" style="stroke-width: 1.94; stroke-opacity: 0.48; stroke: rgb(255, 23, 23); fill: none;"></path><path class="link" marker-end="" d="M1118,337, 1348,360" style="stroke-width: 1.94; stroke-opacity: 0.48; stroke: rgb(255, 166, 166); fill: none;"></path><path class="link" marker-end="" d="M1118,383, 1348,360" style="stroke-width: 1.94; stroke-opacity: 0.48; stroke: rgb(65, 65, 255); fill: none;"></path><path class="link" marker-end="" d="M428,337, 658,199" style="stroke-width: 1.94; stroke-opacity: 0.48; stroke: rgb(255, 197, 197); fill: none;"></path><path class="link" marker-end="" d="M428,337, 658,245" style="stroke-width: 1.94; stroke-opacity: 0.48; stroke: rgb(255, 11, 11); fill: none;"></path><path class="link" marker-end="" d="M428,337, 658,291" style="stroke-width: 1.94; stroke-opacity: 0.48; stroke: rgb(255, 235, 235); fill: none;"></path><path class="link" marker-end="" d="M428,337, 658,337" style="stroke-width: 1.94; stroke-opacity: 0.48; stroke: rgb(255, 130, 130); fill: none;"></path><path class="link" marker-end="" d="M428,337, 658,383" style="stroke-width: 1.94; stroke-opacity: 0.48; stroke: rgb(255, 149, 149); fill: none;"></path><path class="link" marker-end="" d="M428,337, 658,429" style="stroke-width: 1.94; stroke-opacity: 0.48; stroke: rgb(255, 79, 79); fill: none;"></path><path class="link" marker-end="" d="M428,337, 658,475" style="stroke-width: 1.94; stroke-opacity: 0.48; stroke: rgb(255, 154, 154); fill: none;"></path><path class="link" marker-end="" d="M428,337, 658,521" style="stroke-width: 1.94; stroke-opacity: 0.48; stroke: rgb(30, 30, 255); fill: none;"></path><path class="link" marker-end="" d="M428,383, 658,199" style="stroke-width: 1.94; stroke-opacity: 0.48; stroke: rgb(200, 200, 255); fill: none;"></path><path class="link" marker-end="" d="M428,383, 658,245" style="stroke-width: 1.94; stroke-opacity: 0.48; stroke: rgb(10, 10, 255); fill: none;"></path><path class="link" marker-end="" d="M428,383, 658,291" style="stroke-width: 1.94; stroke-opacity: 0.48; stroke: rgb(52, 52, 255); fill: none;"></path><path class="link" marker-end="" d="M428,383, 658,337" style="stroke-width: 1.94; stroke-opacity: 0.48; stroke: rgb(255, 115, 115); fill: none;"></path><path class="link" marker-end="" d="M428,383, 658,383" style="stroke-width: 1.94; stroke-opacity: 0.48; stroke: rgb(100, 100, 255); fill: none;"></path><path class="link" marker-end="" d="M428,383, 658,429" style="stroke-width: 1.94; stroke-opacity: 0.48; stroke: rgb(39, 39, 255); fill: none;"></path><path class="link" marker-end="" d="M428,383, 658,475" style="stroke-width: 1.94; stroke-opacity: 0.48; stroke: rgb(255, 151, 151); fill: none;"></path><path class="link" marker-end="" d="M428,383, 658,521" style="stroke-width: 1.94; stroke-opacity: 0.48; stroke: rgb(98, 98, 255); fill: none;"></path><path class="link" marker-end="" d="M428,429, 658,199" style="stroke-width: 1.94; stroke-opacity: 0.48; stroke: rgb(90, 90, 255); fill: none;"></path><path class="link" marker-end="" d="M428,429, 658,245" style="stroke-width: 1.94; stroke-opacity: 0.48; stroke: rgb(11, 11, 255); fill: none;"></path><path class="link" marker-end="" d="M428,429, 658,291" style="stroke-width: 1.94; stroke-opacity: 0.48; stroke: rgb(255, 146, 146); fill: none;"></path><path class="link" marker-end="" d="M428,429, 658,337" style="stroke-width: 1.94; stroke-opacity: 0.48; stroke: rgb(255, 33, 33); fill: none;"></path><path class="link" marker-end="" d="M428,429, 658,383" style="stroke-width: 1.94; stroke-opacity: 0.48; stroke: rgb(1, 1, 255); fill: none;"></path><path class="link" marker-end="" d="M428,429, 658,429" style="stroke-width: 1.94; stroke-opacity: 0.48; stroke: rgb(249, 249, 255); fill: none;"></path><path class="link" marker-end="" d="M428,429, 658,475" style="stroke-width: 1.94; stroke-opacity: 0.48; stroke: rgb(255, 157, 157); fill: none;"></path><path class="link" marker-end="" d="M428,429, 658,521" style="stroke-width: 1.94; stroke-opacity: 0.48; stroke: rgb(255, 15, 15); fill: none;"></path><path class="link" marker-end="" d="M428,475, 658,199" style="stroke-width: 1.94; stroke-opacity: 0.48; stroke: rgb(145, 145, 255); fill: none;"></path><path class="link" marker-end="" d="M428,475, 658,245" style="stroke-width: 1.94; stroke-opacity: 0.48; stroke: rgb(255, 7, 7); fill: none;"></path><path class="link" marker-end="" d="M428,475, 658,291" style="stroke-width: 1.94; stroke-opacity: 0.48; stroke: rgb(85, 85, 255); fill: none;"></path><path class="link" marker-end="" d="M428,475, 658,337" style="stroke-width: 1.94; stroke-opacity: 0.48; stroke: rgb(187, 187, 255); fill: none;"></path><path class="link" marker-end="" d="M428,475, 658,383" style="stroke-width: 1.94; stroke-opacity: 0.48; stroke: rgb(212, 212, 255); fill: none;"></path><path class="link" marker-end="" d="M428,475, 658,429" style="stroke-width: 1.94; stroke-opacity: 0.48; stroke: rgb(39, 39, 255); fill: none;"></path><path class="link" marker-end="" d="M428,475, 658,475" style="stroke-width: 1.94; stroke-opacity: 0.48; stroke: rgb(255, 36, 36); fill: none;"></path><path class="link" marker-end="" d="M428,475, 658,521" style="stroke-width: 1.94; stroke-opacity: 0.48; stroke: rgb(255, 57, 57); fill: none;"></path><path class="link" marker-end="" d="M428,521, 658,199" style="stroke-width: 1.94; stroke-opacity: 0.48; stroke: rgb(178, 178, 255); fill: none;"></path><path class="link" marker-end="" d="M428,521, 658,245" style="stroke-width: 1.94; stroke-opacity: 0.48; stroke: rgb(255, 53, 53); fill: none;"></path><path class="link" marker-end="" d="M428,521, 658,291" style="stroke-width: 1.94; stroke-opacity: 0.48; stroke: rgb(255, 9, 9); fill: none;"></path><path class="link" marker-end="" d="M428,521, 658,337" style="stroke-width: 1.94; stroke-opacity: 0.48; stroke: rgb(255, 240, 240); fill: none;"></path><path class="link" marker-end="" d="M428,521, 658,383" style="stroke-width: 1.94; stroke-opacity: 0.48; stroke: rgb(255, 4, 4); fill: none;"></path><path class="link" marker-end="" d="M428,521, 658,429" style="stroke-width: 1.94; stroke-opacity: 0.48; stroke: rgb(8, 8, 255); fill: none;"></path><path class="link" marker-end="" d="M428,521, 658,475" style="stroke-width: 1.94; stroke-opacity: 0.48; stroke: rgb(225, 225, 255); fill: none;"></path><path class="link" marker-end="" d="M428,521, 658,521" style="stroke-width: 1.94; stroke-opacity: 0.48; stroke: rgb(250, 250, 255); fill: none;"></path><path class="link" marker-end="" d="M428,567, 658,199" style="stroke-width: 1.94; stroke-opacity: 0.48; stroke: rgb(68, 68, 255); fill: none;"></path><path class="link" marker-end="" d="M428,567, 658,245" style="stroke-width: 1.94; stroke-opacity: 0.48; stroke: rgb(170, 170, 255); fill: none;"></path><path class="link" marker-end="" d="M428,567, 658,291" style="stroke-width: 1.94; stroke-opacity: 0.48; stroke: rgb(255, 196, 196); fill: none;"></path><path class="link" marker-end="" d="M428,567, 658,337" style="stroke-width: 1.94; stroke-opacity: 0.48; stroke: rgb(234, 234, 255); fill: none;"></path><path class="link" marker-end="" d="M428,567, 658,383" style="stroke-width: 1.94; stroke-opacity: 0.48; stroke: rgb(255, 23, 23); fill: none;"></path><path class="link" marker-end="" d="M428,567, 658,429" style="stroke-width: 1.94; stroke-opacity: 0.48; stroke: rgb(160, 160, 255); fill: none;"></path><path class="link" marker-end="" d="M428,567, 658,475" style="stroke-width: 1.94; stroke-opacity: 0.48; stroke: rgb(255, 123, 123); fill: none;"></path><path class="link" marker-end="" d="M428,567, 658,521" style="stroke-width: 1.94; stroke-opacity: 0.48; stroke: rgb(166, 166, 255); fill: none;"></path><path class="link" marker-end="" d="M428,613, 658,199" style="stroke-width: 1.94; stroke-opacity: 0.48; stroke: rgb(189, 189, 255); fill: none;"></path><path class="link" marker-end="" d="M428,613, 658,245" style="stroke-width: 1.94; stroke-opacity: 0.48; stroke: rgb(111, 111, 255); fill: none;"></path><path class="link" marker-end="" d="M428,613, 658,291" style="stroke-width: 1.94; stroke-opacity: 0.48; stroke: rgb(255, 141, 141); fill: none;"></path><path class="link" marker-end="" d="M428,613, 658,337" style="stroke-width: 1.94; stroke-opacity: 0.48; stroke: rgb(247, 247, 255); fill: none;"></path><path class="link" marker-end="" d="M428,613, 658,383" style="stroke-width: 1.94; stroke-opacity: 0.48; stroke: rgb(255, 129, 129); fill: none;"></path><path class="link" marker-end="" d="M428,613, 658,429" style="stroke-width: 1.94; stroke-opacity: 0.48; stroke: rgb(255, 100, 100); fill: none;"></path><path class="link" marker-end="" d="M428,613, 658,475" style="stroke-width: 1.94; stroke-opacity: 0.48; stroke: rgb(255, 65, 65); fill: none;"></path><path class="link" marker-end="" d="M428,613, 658,521" style="stroke-width: 1.94; stroke-opacity: 0.48; stroke: rgb(113, 113, 255); fill: none;"></path><path class="link" marker-end="" d="M428,659, 658,199" style="stroke-width: 1.94; stroke-opacity: 0.48; stroke: rgb(176, 176, 255); fill: none;"></path><path class="link" marker-end="" d="M428,659, 658,245" style="stroke-width: 1.94; stroke-opacity: 0.48; stroke: rgb(255, 138, 138); fill: none;"></path><path class="link" marker-end="" d="M428,659, 658,291" style="stroke-width: 1.94; stroke-opacity: 0.48; stroke: rgb(255, 124, 124); fill: none;"></path><path class="link" marker-end="" d="M428,659, 658,337" style="stroke-width: 1.94; stroke-opacity: 0.48; stroke: rgb(161, 161, 255); fill: none;"></path><path class="link" marker-end="" d="M428,659, 658,383" style="stroke-width: 1.94; stroke-opacity: 0.48; stroke: rgb(255, 91, 91); fill: none;"></path><path class="link" marker-end="" d="M428,659, 658,429" style="stroke-width: 1.94; stroke-opacity: 0.48; stroke: rgb(255, 202, 202); fill: none;"></path><path class="link" marker-end="" d="M428,659, 658,475" style="stroke-width: 1.94; stroke-opacity: 0.48; stroke: rgb(97, 97, 255); fill: none;"></path><path class="link" marker-end="" d="M428,659, 658,521" style="stroke-width: 1.94; stroke-opacity: 0.48; stroke: rgb(255, 92, 92); fill: none;"></path><path class="link" marker-end="" d="M428,705, 658,199" style="stroke-width: 1.94; stroke-opacity: 0.48; stroke: rgb(25, 25, 255); fill: none;"></path><path class="link" marker-end="" d="M428,705, 658,245" style="stroke-width: 1.94; stroke-opacity: 0.48; stroke: rgb(255, 48, 48); fill: none;"></path><path class="link" marker-end="" d="M428,705, 658,291" style="stroke-width: 1.94; stroke-opacity: 0.48; stroke: rgb(249, 249, 255); fill: none;"></path><path class="link" marker-end="" d="M428,705, 658,337" style="stroke-width: 1.94; stroke-opacity: 0.48; stroke: rgb(165, 165, 255); fill: none;"></path><path class="link" marker-end="" d="M428,705, 658,383" style="stroke-width: 1.94; stroke-opacity: 0.48; stroke: rgb(171, 171, 255); fill: none;"></path><path class="link" marker-end="" d="M428,705, 658,429" style="stroke-width: 1.94; stroke-opacity: 0.48; stroke: rgb(239, 239, 255); fill: none;"></path><path class="link" marker-end="" d="M428,705, 658,475" style="stroke-width: 1.94; stroke-opacity: 0.48; stroke: rgb(65, 65, 255); fill: none;"></path><path class="link" marker-end="" d="M428,705, 658,521" style="stroke-width: 1.94; stroke-opacity: 0.48; stroke: rgb(238, 238, 255); fill: none;"></path><path class="link" marker-end="" d="M658,199, 888,383" style="stroke-width: 1.94; stroke-opacity: 0.48; stroke: rgb(255, 236, 236); fill: none;"></path><path class="link" marker-end="" d="M658,245, 888,383" style="stroke-width: 1.94; stroke-opacity: 0.48; stroke: rgb(255, 44, 44); fill: none;"></path><path class="link" marker-end="" d="M658,291, 888,383" style="stroke-width: 1.94; stroke-opacity: 0.48; stroke: rgb(255, 171, 171); fill: none;"></path><path class="link" marker-end="" d="M658,337, 888,383" style="stroke-width: 1.94; stroke-opacity: 0.48; stroke: rgb(128, 128, 255); fill: none;"></path><path class="link" marker-end="" d="M658,383, 888,383" style="stroke-width: 1.94; stroke-opacity: 0.48; stroke: rgb(147, 147, 255); fill: none;"></path><path class="link" marker-end="" d="M658,429, 888,383" style="stroke-width: 1.94; stroke-opacity: 0.48; stroke: rgb(105, 105, 255); fill: none;"></path><path class="link" marker-end="" d="M658,475, 888,383" style="stroke-width: 1.94; stroke-opacity: 0.48; stroke: rgb(255, 248, 248); fill: none;"></path><path class="link" marker-end="" d="M658,521, 888,383" style="stroke-width: 1.94; stroke-opacity: 0.48; stroke: rgb(255, 243, 243); fill: none;"></path><path class="link" marker-end="" d="M888,383, 1118,337" style="stroke-width: 1.94; stroke-opacity: 0.48; stroke: rgb(255, 11, 11); fill: none;"></path><path class="link" marker-end="" d="M888,383, 1118,383" style="stroke-width: 1.94; stroke-opacity: 0.48; stroke: rgb(255, 11, 11); fill: none;"></path><path class="link" marker-end="" d="M658,199, 888,429" style="stroke-width: 1.94; stroke-opacity: 0.48; stroke: rgb(255, 29, 29); fill: none;"></path><path class="link" marker-end="" d="M658,245, 888,429" style="stroke-width: 1.94; stroke-opacity: 0.48; stroke: rgb(255, 188, 188); fill: none;"></path><path class="link" marker-end="" d="M658,291, 888,429" style="stroke-width: 1.94; stroke-opacity: 0.48; stroke: rgb(81, 81, 255); fill: none;"></path><path class="link" marker-end="" d="M658,337, 888,429" style="stroke-width: 1.94; stroke-opacity: 0.48; stroke: rgb(233, 233, 255); fill: none;"></path><path class="link" marker-end="" d="M658,383, 888,429" style="stroke-width: 1.94; stroke-opacity: 0.48; stroke: rgb(218, 218, 255); fill: none;"></path><path class="link" marker-end="" d="M658,429, 888,429" style="stroke-width: 1.94; stroke-opacity: 0.48; stroke: rgb(213, 213, 255); fill: none;"></path><path class="link" marker-end="" d="M658,475, 888,429" style="stroke-width: 1.94; stroke-opacity: 0.48; stroke: rgb(143, 143, 255); fill: none;"></path><path class="link" marker-end="" d="M658,521, 888,429" style="stroke-width: 1.94; stroke-opacity: 0.48; stroke: rgb(186, 186, 255); fill: none;"></path><path class="link" marker-end="" d="M888,429, 1118,337" style="stroke-width: 1.94; stroke-opacity: 0.48; stroke: rgb(255, 247, 247); fill: none;"></path><path class="link" marker-end="" d="M888,429, 1118,383" style="stroke-width: 1.94; stroke-opacity: 0.48; stroke: rgb(255, 142, 142); fill: none;"></path><circle r="13" class="node" id="0_0" cx="428" cy="15" style="fill: rgb(255, 255, 255); stroke: rgb(51, 51, 51);"></circle><circle r="13" class="node" id="0_1" cx="428" cy="61" style="fill: rgb(255, 255, 255); stroke: rgb(51, 51, 51);"></circle><circle r="13" class="node" id="0_2" cx="428" cy="107" style="fill: rgb(255, 255, 255); stroke: rgb(51, 51, 51);"></circle><circle r="13" class="node" id="0_3" cx="428" cy="153" style="fill: rgb(255, 255, 255); stroke: rgb(51, 51, 51);"></circle><circle r="13" class="node" id="0_4" cx="428" cy="199" style="fill: rgb(255, 255, 255); stroke: rgb(51, 51, 51);"></circle><circle r="13" class="node" id="0_5" cx="428" cy="245" style="fill: rgb(255, 255, 255); stroke: rgb(51, 51, 51);"></circle><circle r="13" class="node" id="0_6" cx="428" cy="291" style="fill: rgb(255, 255, 255); stroke: rgb(51, 51, 51);"></circle><circle r="13" class="node" id="0_7" cx="428" cy="337" style="fill: rgb(255, 255, 255); stroke: rgb(51, 51, 51);"></circle><circle r="13" class="node" id="0_8" cx="428" cy="383" style="fill: rgb(255, 255, 255); stroke: rgb(51, 51, 51);"></circle><circle r="13" class="node" id="0_9" cx="428" cy="429" style="fill: rgb(255, 255, 255); stroke: rgb(51, 51, 51);"></circle><circle r="13" class="node" id="0_10" cx="428" cy="475" style="fill: rgb(255, 255, 255); stroke: rgb(51, 51, 51);"></circle><circle r="13" class="node" id="0_11" cx="428" cy="521" style="fill: rgb(255, 255, 255); stroke: rgb(51, 51, 51);"></circle><circle r="13" class="node" id="0_12" cx="428" cy="567" style="fill: rgb(255, 255, 255); stroke: rgb(51, 51, 51);"></circle><circle r="13" class="node" id="0_13" cx="428" cy="613" style="fill: rgb(255, 255, 255); stroke: rgb(51, 51, 51);"></circle><circle r="13" class="node" id="0_14" cx="428" cy="659" style="fill: rgb(255, 255, 255); stroke: rgb(51, 51, 51);"></circle><circle r="13" class="node" id="0_15" cx="428" cy="705" style="fill: rgb(255, 255, 255); stroke: rgb(51, 51, 51);"></circle><circle r="13" class="node" id="1_0" cx="658" cy="199" style="fill: rgb(255, 255, 255); stroke: rgb(51, 51, 51);"></circle><circle r="13" class="node" id="1_1" cx="658" cy="245" style="fill: rgb(255, 255, 255); stroke: rgb(51, 51, 51);"></circle><circle r="13" class="node" id="1_2" cx="658" cy="291" style="fill: rgb(255, 255, 255); stroke: rgb(51, 51, 51);"></circle><circle r="13" class="node" id="1_3" cx="658" cy="337" style="fill: rgb(255, 255, 255); stroke: rgb(51, 51, 51);"></circle><circle r="13" class="node" id="1_4" cx="658" cy="383" style="fill: rgb(255, 255, 255); stroke: rgb(51, 51, 51);"></circle><circle r="13" class="node" id="1_5" cx="658" cy="429" style="fill: rgb(255, 255, 255); stroke: rgb(51, 51, 51);"></circle><circle r="13" class="node" id="1_6" cx="658" cy="475" style="fill: rgb(255, 255, 255); stroke: rgb(51, 51, 51);"></circle><circle r="13" class="node" id="1_7" cx="658" cy="521" style="fill: rgb(255, 255, 255); stroke: rgb(51, 51, 51);"></circle><circle r="13" class="node" id="2_0" cx="888" cy="291" style="fill: rgb(255, 255, 255); stroke: rgb(51, 51, 51);"></circle><circle r="13" class="node" id="2_1" cx="888" cy="337" style="fill: rgb(255, 255, 255); stroke: rgb(51, 51, 51);"></circle><circle r="13" class="node" id="2_2" cx="888" cy="383" style="fill: rgb(255, 255, 255); stroke: rgb(51, 51, 51);"></circle><circle r="13" class="node" id="2_3" cx="888" cy="429" style="fill: rgb(255, 255, 255); stroke: rgb(51, 51, 51);"></circle><circle r="13" class="node" id="3_0" cx="1118" cy="337" style="fill: rgb(255, 255, 255); stroke: rgb(51, 51, 51);"></circle><text class="text" dy=".35em" x="393" y="751" style="font-size: 12px;"></text><text class="text" dy=".35em" x="623" y="751" style="font-size: 12px;"></text><text class="text" dy=".35em" x="853" y="751" style="font-size: 12px;"></text><text class="text" dy=".35em" x="1083" y="751" style="font-size: 12px;"></text><circle r="13" class="node" id="3_1" cx="1118" cy="383" style="fill: rgb(255, 255, 255); stroke: rgb(51, 51, 51);"></circle><circle r="13" class="node" id="4_0" cx="1348" cy="360" style="fill: rgb(255, 255, 255); stroke: rgb(51, 51, 51);"></circle><text class="text" dy=".35em" x="1313" y="751" style="font-size: 12px;"></text></g><defs><marker id="arrow" viewBox="0 -5 10 10" markerWidth="7" markerHeight="7" orient="auto" refX="48.4"><path d="M0,-5L10,0L0,5" style="stroke: rgb(80, 80, 80); fill: rgb(80, 80, 80);"></path></marker></defs></svg>